<?xml version="1.0" standalone="no"?>
<!DOCTYPE svg PUBLIC "-//W3C//DTD SVG 20010904//EN"
 "http://www.w3.org/TR/2001/REC-SVG-20010904/DTD/svg10.dtd">
<svg version="1.0" xmlns="http://www.w3.org/2000/svg"
 width="1410.000000pt" height="940.000000pt" viewBox="0 0 1410.000000 940.000000"
 preserveAspectRatio="xMidYMid meet">

<g transform="translate(0.000000,940.000000) scale(0.100000,-0.100000)"
fill="#000000" stroke="none">
<path d="M3702 8053 c-37 -8 -91 -73 -133 -161 -22 -46 -49 -92 -60 -103 -10
-10 -19 -24 -19 -29 0 -6 -9 -30 -21 -53 -35 -70 -87 -217 -79 -222 4 -2 13
15 19 38 7 23 17 50 22 59 5 10 9 25 9 33 0 9 7 18 15 21 8 4 15 14 15 23 0
18 58 113 72 119 5 2 8 10 8 18 0 7 18 37 40 66 22 29 40 58 40 63 1 6 17 20
36 32 66 43 204 24 204 -27 0 -28 17 -33 23 -7 10 38 -7 89 -35 110 -27 20
-108 31 -156 20z"/>
<path d="M1508 7784 c-4 -4 -27 -9 -50 -11 -42 -4 -111 -24 -145 -42 -10 -5
-38 -14 -63 -21 -25 -6 -78 -27 -118 -46 -40 -19 -81 -34 -92 -34 -23 0 -134
-64 -175 -101 -16 -15 -41 -30 -54 -34 -14 -4 -59 -35 -100 -69 -42 -34 -87
-69 -100 -78 -43 -30 -183 -172 -224 -228 -50 -66 -117 -180 -117 -197 0 -19
26 -5 37 20 12 24 113 147 179 217 23 25 51 54 61 66 10 11 41 35 68 54 28 18
66 48 85 66 19 18 55 43 80 55 25 13 79 49 120 80 42 31 97 64 123 73 26 9 55
20 64 25 92 48 275 103 423 128 67 11 99 11 150 3 36 -6 78 -13 93 -16 33 -4
67 -21 67 -33 0 -5 17 -20 39 -34 40 -27 68 -75 91 -157 15 -56 35 -96 42 -84
12 22 -45 193 -77 232 -8 9 -31 41 -52 71 -40 56 -71 73 -158 87 -71 11 -190
16 -197 8z"/>
<path d="M3661 7524 c0 -11 3 -14 6 -6 3 7 2 16 -1 19 -3 4 -6 -2 -5 -13z"/>
<path d="M3640 7466 c-5 -15 -10 -33 -10 -39 0 -7 -9 -32 -20 -56 -15 -32 -16
-40 -5 -31 15 12 58 140 50 148 -2 3 -9 -7 -15 -22z"/>
<path d="M3353 7445 c-3 -9 -3 -18 -1 -21 3 -3 8 4 11 16 6 23 -1 27 -10 5z"/>
<path d="M3487 7115 c-53 -112 -97 -209 -97 -215 0 -5 -5 -9 -12 -8 -12 3 -47
-57 -47 -82 0 -10 6 -6 19 10 11 14 20 29 20 33 0 4 10 19 23 33 13 14 32 48
41 75 10 28 41 94 69 147 46 90 91 201 84 209 -2 1 -47 -89 -100 -202z"/>
<path d="M3296 7283 c-6 -14 -5 -15 5 -6 7 7 10 15 7 18 -3 3 -9 -2 -12 -12z"/>
<path d="M5784 7282 c-85 -30 -193 -110 -314 -234 -63 -65 -118 -118 -123
-118 -4 0 -7 10 -8 23 0 16 -4 11 -15 -18 -9 -23 -12 -52 -8 -69 l6 -30 29 32
c16 18 32 32 35 32 3 0 36 32 73 72 119 128 303 248 382 248 65 0 93 -21 130
-95 l19 -40 -5 55 c-3 30 -10 70 -16 88 -19 58 -101 83 -185 54z"/>
<path d="M4289 7186 c-105 -39 -220 -118 -363 -248 -77 -70 -147 -140 -155
-155 -7 -15 -35 -53 -62 -85 -26 -31 -62 -79 -80 -105 -18 -26 -35 -50 -38
-53 -4 -3 -19 -23 -35 -45 -52 -71 -90 -107 -141 -131 l-50 -24 -14 30 c-21
43 -47 36 -43 -10 2 -19 7 -36 12 -38 4 -2 21 -14 37 -28 15 -13 31 -23 35
-21 12 4 108 98 108 106 0 4 14 17 31 30 18 13 28 28 25 37 -3 8 1 14 9 14 8
0 35 30 61 68 99 141 154 210 203 258 29 27 80 76 114 109 34 33 67 59 74 57
6 -1 23 13 38 32 14 19 37 37 51 40 14 4 22 11 19 16 -3 6 3 10 13 10 11 0 26
7 33 16 16 20 44 31 99 39 23 3 52 10 64 14 44 16 190 -15 222 -46 18 -18 72
-120 97 -183 l17 -45 -5 44 c-3 24 -14 62 -25 84 -11 22 -20 44 -20 49 0 4 -9
17 -20 28 -11 11 -20 29 -20 39 0 29 -46 78 -83 90 -18 5 -52 12 -77 16 -25 4
-52 8 -60 9 -8 2 -40 -6 -71 -18z"/>
<path d="M5143 7190 c-18 -11 -33 -26 -33 -34 0 -8 -30 -37 -67 -65 -90 -66
-93 -70 -129 -116 -35 -45 -64 -98 -64 -117 0 -7 23 12 50 41 28 30 70 66 93
81 23 15 70 53 105 85 56 51 69 58 107 59 35 1 49 -4 74 -29 17 -16 33 -45 37
-62 3 -18 10 -33 15 -33 10 0 6 22 -17 107 -25 92 -98 128 -171 83z"/>
<path d="M6323 7038 c-25 -24 -85 -88 -132 -143 -47 -55 -92 -105 -101 -112
-24 -20 -46 -15 -65 13 -24 37 -27 25 -7 -32 24 -67 49 -70 100 -13 20 23 62
68 92 99 30 31 77 80 104 108 36 38 54 51 68 47 11 -4 20 -1 24 10 8 19 -11
65 -26 65 -6 0 -31 -19 -57 -42z"/>
<path d="M2370 6863 c-36 -14 -74 -33 -85 -43 -11 -10 -30 -21 -43 -25 -13 -4
-51 -32 -85 -64 -34 -31 -79 -69 -100 -84 -20 -16 -59 -57 -86 -93 l-49 -64
-7 50 c-4 27 -11 50 -16 50 -5 0 -9 -6 -9 -14 0 -23 -286 -229 -307 -221 -7 2
-13 -2 -13 -10 0 -8 -9 -19 -20 -25 -11 -6 -20 -17 -20 -25 0 -23 40 -18 76
10 18 14 35 25 38 25 6 0 81 49 161 105 48 34 71 33 58 -3 -5 -12 -2 -12 15
-3 24 13 28 26 12 36 -12 7 -14 35 -2 35 4 0 13 -15 20 -32 l13 -33 20 25 c93
115 227 228 349 293 82 45 99 50 165 51 49 1 50 0 71 -41 12 -23 24 -52 27
-64 6 -22 7 -22 27 -4 11 10 20 23 20 30 0 14 46 58 78 74 27 14 75 6 93 -15
29 -36 40 5 14 56 -16 32 -56 45 -101 34 -38 -9 -62 -30 -85 -77 -19 -36 -39
-42 -39 -10 0 42 -64 103 -107 103 -10 0 -47 -12 -83 -27z"/>
<path d="M5068 6813 c-42 -68 -98 -177 -98 -189 0 -13 79 76 95 106 15 30 46
132 41 137 -1 2 -19 -23 -38 -54z"/>
<path d="M410 6760 c0 -23 7 -33 30 -45 16 -8 38 -15 49 -15 11 0 22 -4 26 -9
3 -6 18 -6 37 -1 17 5 34 7 39 5 15 -10 229 -13 235 -4 3 5 9 7 12 5 4 -2 84
-7 177 -10 190 -7 208 -9 250 -25 16 -7 41 -11 55 -10 14 0 27 0 30 -1 3 -1
18 -4 34 -6 54 -9 131 -51 164 -89 32 -38 36 -52 34 -110 -1 -26 0 -27 7 -10
5 11 10 35 10 53 1 43 -34 141 -56 158 -35 27 -149 79 -178 81 -16 1 -39 3
-50 3 -11 1 -27 4 -35 7 -22 9 -20 9 -85 16 -56 7 -233 10 -569 8 -89 -1 -144
3 -153 10 -7 6 -13 9 -13 5 0 -3 -11 -1 -25 4 -23 9 -25 7 -25 -20z"/>
<path d="M2897 6562 c-98 -129 -122 -156 -166 -180 -20 -12 -25 -12 -32 0 -5
8 -9 -9 -9 -44 0 -32 2 -58 5 -58 10 0 127 130 193 215 38 50 78 98 90 108 20
18 21 18 31 0 9 -14 11 -8 9 31 -2 27 -8 51 -14 53 -5 2 -54 -54 -107 -125z"/>
<path d="M4470 6645 c-23 -61 -133 -199 -183 -230 -36 -23 -107 -36 -129 -24
-10 5 -29 31 -43 57 l-24 47 -1 -36 c0 -48 18 -97 40 -109 48 -26 148 0 198
49 46 46 72 79 72 90 0 5 7 14 16 21 8 8 22 30 31 49 25 59 42 111 37 111 -2
0 -9 -11 -14 -25z"/>
<path d="M2448 6533 c-13 -16 -35 -44 -47 -65 -31 -52 -235 -245 -317 -300
-38 -25 -86 -49 -107 -53 -31 -6 -37 -11 -37 -31 0 -32 20 -39 61 -21 31 13
122 76 159 109 8 8 53 48 98 89 79 70 201 223 188 236 -3 3 4 19 15 34 26 37
20 37 -13 2z"/>
<path d="M1275 6282 c-38 -72 -167 -204 -226 -231 -24 -12 -84 -49 -134 -85
-49 -35 -120 -82 -156 -104 -36 -22 -102 -68 -145 -102 -43 -33 -107 -80 -141
-103 -56 -37 -83 -73 -83 -108 0 -5 23 8 50 29 100 74 373 264 441 307 279
172 359 249 414 398 25 67 15 66 -20 -1z"/>
<path d="M6064 6051 c-114 -69 -278 -374 -494 -916 -29 -71 -61 -147 -71 -167
-20 -38 -39 -50 -39 -24 0 37 -96 106 -147 106 -38 0 -180 -73 -271 -141 -108
-79 -237 -258 -293 -404 -16 -44 -34 -89 -39 -100 -5 -11 -12 -36 -15 -55 -8
-48 8 -22 34 57 12 34 30 77 41 95 11 18 38 65 60 104 54 95 219 256 310 301
124 62 223 71 257 24 8 -12 23 -21 33 -21 11 0 22 -11 28 -27 9 -27 9 -27 41
37 18 36 48 106 66 155 18 50 46 119 63 155 17 36 40 89 51 118 34 86 113 255
131 282 10 14 30 48 44 75 64 118 141 227 183 259 34 25 89 24 112 -3 11 -13
22 -28 24 -34 2 -7 7 -10 10 -7 12 11 -17 92 -43 120 -33 35 -36 36 -76 11z"/>
<path d="M848 5762 c-18 -15 -68 -54 -111 -86 -42 -32 -80 -63 -84 -69 -11
-17 169 84 215 121 42 35 55 62 27 62 -8 0 -29 -12 -47 -28z"/>
<path d="M2952 5748 c-51 -28 -222 -192 -222 -213 0 -8 -4 -15 -9 -15 -5 0
-40 -37 -78 -82 -37 -46 -101 -121 -140 -168 -40 -46 -73 -91 -73 -100 0 -8
-29 -49 -65 -90 -36 -41 -77 -95 -92 -120 -14 -25 -59 -94 -98 -155 -40 -60
-85 -139 -100 -175 -16 -36 -34 -72 -41 -80 -6 -8 -27 -44 -45 -79 -41 -78
-51 -95 -67 -114 -7 -8 -32 -53 -56 -99 -23 -45 -60 -110 -81 -143 -22 -33
-47 -76 -57 -96 -30 -59 -118 -151 -139 -146 -21 6 -24 -5 -9 -34 29 -53 68
-10 230 261 52 85 97 157 102 158 4 2 8 10 8 19 0 8 8 27 18 41 33 48 91 158
95 179 1 11 10 28 19 37 9 9 20 26 24 39 4 12 16 28 26 36 13 9 16 16 9 20 -7
5 -5 13 7 27 31 34 82 112 82 127 0 8 9 22 20 32 11 10 20 22 20 27 0 5 19 35
43 66 24 31 46 65 50 75 3 9 10 17 15 17 5 0 22 19 38 43 16 23 53 73 82 111
28 38 52 75 52 82 0 8 11 21 25 30 24 16 131 140 167 194 20 30 74 90 81 90 2
0 28 22 56 50 70 68 89 79 156 90 84 14 100 7 145 -64 42 -64 48 -59 29 24
-23 103 -132 149 -227 98z"/>
<path d="M6005 5600 c-10 -22 -16 -43 -13 -46 3 -2 13 14 22 37 9 23 15 43 13
45 -2 2 -12 -14 -22 -36z"/>
<path d="M1870 5601 c-72 -22 -194 -100 -290 -185 -19 -17 -116 -110 -215
-207 -99 -97 -201 -197 -227 -222 -28 -26 -48 -55 -48 -67 0 -14 4 -19 13 -14
44 27 121 91 173 145 166 173 314 317 353 344 24 17 67 47 95 67 65 48 144 72
205 63 59 -8 74 -20 94 -75 l15 -45 1 51 c1 78 -14 110 -63 133 -44 22 -65 24
-106 12z"/>
<path d="M5967 5514 c-3 -3 -17 -30 -31 -59 -15 -29 -44 -70 -66 -91 -22 -22
-49 -57 -60 -79 -12 -22 -28 -52 -38 -67 -9 -15 -13 -30 -8 -35 12 -12 46 35
46 64 0 13 4 22 9 18 6 -3 18 6 28 20 10 15 28 39 40 54 19 24 96 181 89 181
-1 0 -5 -3 -9 -6z"/>
<path d="M1720 5177 c0 -7 -16 -37 -35 -67 -19 -30 -40 -73 -45 -95 -22 -79
-22 -82 -6 -55 9 14 15 31 16 38 0 8 15 39 34 70 32 53 55 122 42 122 -3 0 -6
-6 -6 -13z"/>
<path d="M6660 5083 c-66 -10 -169 -37 -200 -54 -56 -29 -147 -110 -190 -169
-46 -63 -100 -171 -99 -197 0 -10 12 6 26 35 38 78 172 210 253 250 85 42 171
63 246 63 76 -1 112 -13 141 -49 l23 -27 0 51 c0 27 -6 58 -13 68 -21 28 -106
42 -187 29z"/>
<path d="M4002 4942 c-28 -12 -102 -76 -230 -199 -103 -99 -214 -205 -247
-234 -32 -30 -70 -65 -84 -79 -14 -14 -35 -32 -47 -40 -12 -8 -41 -31 -65 -51
-322 -268 -342 -281 -483 -302 -62 -9 -80 -9 -84 1 -4 12 -32 18 -32 7 0 -3 6
-21 14 -40 20 -47 48 -52 138 -24 99 30 154 59 224 116 32 27 77 61 99 76 22
15 60 45 85 68 95 85 160 138 179 144 11 3 20 10 18 14 -2 8 62 71 207 205 48
43 125 117 173 163 92 90 118 107 175 118 48 9 70 1 97 -35 20 -28 61 -161 61
-201 0 -10 5 -21 12 -25 19 -12 2 121 -28 214 -28 89 -46 109 -105 117 -20 3
-52 -3 -77 -13z"/>
<path d="M6635 4871 c-16 -10 -50 -37 -75 -60 -43 -39 -162 -125 -204 -146
-21 -10 -41 -75 -24 -75 5 0 19 9 31 21 12 11 53 41 90 66 37 25 96 72 130
104 34 32 65 59 69 59 7 0 28 33 28 44 0 11 -14 6 -45 -13z"/>
<path d="M7060 4794 c-52 -53 -211 -187 -314 -264 -26 -19 -64 -50 -84 -67
-68 -61 -159 -101 -243 -109 -47 -4 -79 -3 -82 3 -4 6 -18 8 -32 5 -21 -4 -26
-9 -23 -31 7 -63 125 -64 251 -2 80 39 90 46 160 105 32 27 76 59 98 70 21 12
65 46 96 76 32 31 74 66 94 78 19 12 56 44 82 72 25 27 51 50 56 50 5 0 12 8
16 19 6 19 -3 51 -14 51 -4 0 -31 -25 -61 -56z"/>
<path d="M1577 4833 c-3 -4 -13 -42 -22 -83 -10 -41 -26 -93 -36 -115 -28 -64
-79 -221 -78 -241 0 -11 16 26 34 82 18 56 46 128 63 160 17 33 34 89 40 129
10 66 10 86 -1 68z"/>
<path d="M6073 4742 c-45 -48 -110 -120 -145 -160 -35 -41 -96 -96 -136 -124
-79 -54 -91 -53 -115 2 l-11 25 -4 -29 c-9 -70 35 -115 80 -82 13 9 46 32 73
50 53 36 73 55 247 235 74 77 110 122 111 139 1 14 -2 26 -8 28 -5 2 -47 -36
-92 -84z"/>
<path d="M3015 4752 c-108 -34 -128 -44 -198 -102 -81 -67 -157 -192 -228
-375 -42 -108 -44 -113 -27 -90 8 11 31 62 51 114 21 52 50 112 65 135 15 22
31 49 35 58 7 20 109 101 168 135 79 45 180 75 264 78 96 4 121 -4 140 -47 19
-45 30 -15 15 41 -14 54 -43 71 -127 76 -54 4 -86 -1 -158 -23z"/>
<path d="M5340 4643 c-110 -172 -225 -299 -347 -381 -46 -30 -58 -34 -98 -30
-38 5 -45 3 -45 -11 0 -24 22 -49 45 -52 36 -5 97 30 173 99 42 37 79 67 83
67 4 0 11 4 16 9 5 5 3 6 -4 2 -32 -18 -9 14 31 43 24 19 47 41 50 50 8 20 28
54 44 73 7 9 24 37 38 64 14 27 37 66 51 86 13 20 23 43 21 52 -2 8 -27 -23
-58 -71z"/>
<path d="M3922 4472 c-67 -152 -67 -173 0 -40 44 87 69 158 56 158 -2 0 -27
-53 -56 -118z"/>
<path d="M4584 4564 c-13 -31 -228 -234 -321 -303 -43 -32 -96 -66 -118 -76
-164 -74 -181 -84 -156 -99 5 -4 33 -1 63 5 104 21 252 126 477 338 36 33 65
60 66 58 1 -1 7 -11 13 -22 10 -18 11 -16 11 15 0 19 -6 51 -14 70 -12 33 -13
33 -21 14z"/>
<path d="M3095 4561 c-3 -6 -11 -9 -16 -5 -5 3 -40 -22 -77 -56 -37 -33 -97
-82 -134 -108 -37 -26 -67 -53 -68 -59 0 -7 -4 -13 -10 -13 -5 0 -10 -11 -10
-25 0 -14 2 -25 5 -25 3 0 47 34 98 76 51 42 100 82 110 88 9 6 17 19 17 28 0
10 8 18 18 19 18 1 89 76 79 85 -3 3 -8 0 -12 -5z"/>
<path d="M1416 4299 c-8 -42 0 -50 9 -9 4 17 5 34 2 36 -2 3 -7 -10 -11 -27z"/>
<path d="M1920 3059 c-220 -26 -433 -152 -549 -324 -50 -75 -80 -143 -109
-250 -23 -83 -22 -287 1 -375 61 -228 216 -415 430 -515 39 -19 101 -42 137
-52 62 -17 316 -18 5305 -18 2882 0 5283 2 5335 4 151 6 252 38 379 118 120
76 238 216 296 351 54 124 68 198 62 332 -8 182 -63 322 -179 459 -103 121
-241 210 -397 254 l-76 22 -5280 1 c-2946 1 -5313 -2 -5355 -7z m407 -313 c22
-20 27 -31 26 -66 -4 -87 -62 -203 -146 -293 -39 -41 -71 -46 -91 -15 -8 14 1
27 49 75 64 62 114 150 122 214 7 46 -7 55 -52 33 -88 -41 -209 -187 -294
-353 -64 -125 -90 -201 -97 -289 -8 -95 0 -102 78 -72 78 30 142 77 268 199
63 61 123 111 133 111 39 0 12 -49 -87 -160 -200 -225 -402 -297 -483 -173
-23 35 -23 156 0 233 26 85 113 247 171 320 175 216 324 304 403 236z m2193
-41 c11 -13 11 -26 2 -66 -13 -54 -77 -190 -121 -254 -15 -22 -49 -71 -76
-110 -60 -87 -110 -181 -87 -163 10 7 37 30 62 51 103 90 189 118 230 77 24
-24 24 -38 5 -110 -17 -62 -19 -100 -7 -100 5 0 37 25 71 57 44 39 65 53 70
44 15 -24 -2 -61 -49 -107 -87 -85 -127 -101 -169 -66 -25 20 -28 47 -16 151
l8 73 -24 -12 c-39 -21 -149 -112 -221 -183 -36 -37 -69 -67 -73 -67 -3 0 -15
5 -26 10 -29 16 -24 57 17 135 l37 70 -39 -36 c-95 -88 -234 -176 -293 -185
-130 -21 -205 103 -133 217 65 101 155 159 246 159 78 0 104 -29 70 -78 -15
-22 -44 -30 -44 -12 0 20 -61 9 -104 -17 -85 -54 -130 -135 -101 -180 19 -28
31 -28 95 -4 87 33 334 217 361 269 8 14 36 64 62 111 26 46 71 131 99 189 27
59 57 116 65 129 18 27 64 31 83 8z m3398 5 c87 -11 160 -41 198 -81 23 -24
29 -40 29 -74 0 -84 -73 -129 -275 -170 -74 -15 -165 -34 -202 -42 l-68 -15
-30 -59 c-16 -33 -30 -64 -30 -69 0 -9 249 -230 364 -323 59 -49 80 -80 72
-111 -7 -30 -31 -39 -59 -24 -19 10 -184 167 -354 337 -29 30 -55 52 -57 50
-12 -13 -50 -100 -62 -140 -16 -54 -44 -70 -83 -49 -34 17 -27 73 19 169 22
45 40 89 40 97 0 8 -11 20 -25 26 -57 26 -18 93 75 128 52 20 55 24 90 113 41
104 56 127 80 127 33 0 44 -38 30 -103 -6 -31 -16 -59 -21 -63 -59 -36 216 16
326 63 37 15 74 38 82 50 13 19 12 24 -5 41 -42 42 -123 56 -312 55 -198 -1
-236 -9 -301 -68 -22 -20 -50 -35 -64 -35 -31 0 -50 32 -35 59 22 43 172 91
340 110 104 12 153 12 238 1z m4582 -119 c7 -14 6 -29 -6 -56 l-15 -37 28 5
c15 3 62 9 104 12 67 6 78 4 100 -14 l24 -21 -24 -20 c-16 -14 -38 -20 -70
-20 -74 -1 -234 -36 -247 -55 -7 -10 -32 -61 -55 -114 -38 -84 -43 -105 -43
-171 -1 -62 3 -81 23 -114 24 -37 24 -39 6 -52 -30 -22 -61 -17 -81 14 -16 22
-19 46 -19 132 l1 105 -86 -84 c-47 -46 -114 -104 -149 -129 -76 -54 -113 -59
-148 -18 -26 30 -29 67 -12 146 6 28 8 54 5 57 -11 11 -166 -91 -273 -180 -56
-47 -96 -48 -101 -3 -3 21 4 37 26 60 55 59 92 126 69 126 -13 0 -95 -62 -203
-152 -74 -63 -97 -69 -138 -37 -20 16 -26 29 -26 61 l0 40 -47 -36 c-109 -83
-152 -108 -198 -114 -38 -4 -50 -1 -70 18 -50 47 -18 138 77 225 80 72 152
107 214 103 38 -2 51 -8 59 -25 l11 -22 22 21 c18 19 25 20 47 10 33 -15 32
-28 -10 -98 -21 -35 -35 -71 -35 -91 0 -18 3 -33 6 -33 14 0 54 28 124 85 100
83 168 125 201 125 47 0 75 -62 49 -111 -6 -10 -9 -19 -6 -19 3 0 36 23 73 51
96 73 154 93 207 73 24 -9 30 -66 12 -127 -18 -62 -20 -93 -7 -101 16 -10 198
153 289 260 91 106 108 132 75 120 -9 -4 -57 -16 -107 -27 -50 -11 -92 -22
-95 -24 -8 -9 -31 18 -31 36 0 31 42 49 175 77 125 25 127 26 153 65 69 100
99 119 122 78z m-3306 -12 c13 -19 13 -25 0 -50 -7 -15 -14 -29 -14 -31 0 -2
47 3 104 11 110 16 156 9 156 -24 0 -25 -42 -43 -120 -50 -102 -9 -214 -31
-217 -42 -2 -6 -24 -41 -50 -79 -65 -99 -103 -185 -110 -248 -5 -46 -3 -57 11
-62 21 -8 44 4 121 62 58 43 75 49 82 27 6 -17 -102 -128 -150 -153 -54 -29
-90 -22 -117 23 -23 38 -26 113 -6 170 l14 38 -42 -36 c-22 -20 -70 -61 -106
-91 -131 -113 -299 -164 -354 -108 -21 20 -20 58 1 79 15 15 17 15 25 1 6 -10
23 -16 48 -16 30 0 43 6 64 30 36 43 64 160 38 160 -4 0 -35 -22 -68 -48 -210
-169 -298 -221 -374 -222 -48 0 -98 33 -116 77 -14 33 -14 40 2 82 44 121 166
221 268 221 52 0 76 -19 76 -60 0 -38 -57 -86 -177 -152 -68 -36 -93 -55 -93
-69 0 -46 84 -32 191 31 78 46 253 200 271 238 20 41 50 40 86 -4 45 -54 51
-117 18 -189 -13 -30 -21 -55 -17 -55 32 0 282 229 343 314 l21 29 -47 -7
c-26 -4 -73 -16 -104 -26 -96 -33 -125 -24 -98 28 11 21 27 32 58 41 42 11
224 51 232 51 2 0 21 24 42 53 59 83 81 94 108 56z m-5620 -65 c9 -8 16 -26
16 -39 0 -20 -22 -55 -35 -55 -31 0 -70 58 -60 90 8 25 57 27 79 4z m2340 0
c27 -10 38 -40 25 -68 -15 -33 -37 -40 -65 -21 -19 12 -24 24 -24 55 0 36 3
40 24 40 13 0 32 -3 40 -6z m-530 -225 c39 -46 36 -98 -9 -159 -19 -26 -42
-65 -51 -85 -35 -84 31 -65 165 48 120 101 273 207 298 207 26 0 63 -50 63
-85 0 -11 -18 -49 -40 -85 -25 -41 -40 -77 -40 -98 0 -31 1 -32 23 -21 20 10
99 74 151 121 27 25 36 22 36 -10 0 -52 -169 -202 -227 -202 -13 0 -35 12 -50
26 -23 23 -25 31 -21 84 3 37 14 77 31 110 15 28 27 54 27 57 0 9 -152 -102
-217 -158 -132 -117 -222 -148 -274 -93 -36 38 -30 89 20 186 23 44 40 82 37
85 -6 7 -133 -82 -231 -162 -44 -35 -112 -81 -152 -101 -61 -31 -79 -36 -119
-31 -58 6 -95 33 -111 81 -11 32 -10 42 12 90 58 126 155 206 253 206 46 0 82
-26 82 -59 0 -28 -76 -92 -172 -145 -105 -57 -120 -72 -93 -93 13 -9 31 -12
50 -8 49 9 146 59 205 104 30 23 80 61 110 84 30 22 57 44 60 48 13 18 125 89
141 89 9 0 29 -14 43 -31z m5280 0 c34 -41 35 -94 1 -140 -13 -19 -37 -58 -52
-86 -21 -41 -24 -56 -15 -65 16 -16 57 4 141 68 90 69 113 84 123 78 45 -28
-137 -193 -242 -220 -51 -13 -95 -3 -110 26 -20 38 -10 86 36 174 25 48 44 91
42 97 -4 12 -132 -79 -251 -178 -48 -40 -101 -80 -118 -88 -42 -22 -80 -16
-97 15 -16 31 -11 106 11 150 10 18 16 35 14 36 -2 2 -52 -40 -113 -94 -166
-148 -187 -158 -241 -109 -31 27 -29 60 7 136 17 35 29 65 28 66 -2 2 -41 -31
-88 -72 -149 -132 -210 -159 -244 -111 -9 12 -16 40 -16 60 l0 38 -67 -52
c-92 -71 -175 -111 -207 -98 -34 12 -56 48 -56 91 0 94 171 248 293 265 38 5
48 3 67 -16 12 -12 19 -28 16 -37 -4 -10 6 -6 29 11 28 22 38 25 55 16 28 -15
25 -37 -15 -114 -33 -64 -44 -106 -27 -106 12 0 53 30 92 68 76 72 218 182
235 182 23 0 65 -38 65 -59 0 -8 -20 -54 -45 -102 -47 -91 -50 -99 -37 -99 8
0 176 136 255 207 43 38 74 42 105 13 29 -27 28 -49 -8 -127 -46 -99 -42 -103
41 -40 60 45 71 54 219 171 109 86 134 93 174 45z m-8006 -5 c12 -8 22 -25 22
-36 0 -33 -84 -107 -183 -162 -48 -26 -87 -55 -87 -62 0 -8 11 -19 25 -26 19
-9 34 -7 71 7 58 22 193 113 296 198 91 76 124 89 150 57 24 -30 22 -63 -7
-135 -14 -33 -25 -71 -25 -85 0 -21 17 -8 118 91 129 128 156 149 189 149 34
0 66 -36 59 -66 -4 -14 -2 -24 4 -24 5 0 10 4 10 8 0 13 83 70 112 77 18 5 33
0 56 -20 42 -35 42 -72 -2 -161 -19 -38 -31 -70 -25 -72 12 -5 67 30 120 74
79 66 96 26 24 -54 -51 -57 -127 -109 -173 -118 -25 -5 -36 -1 -56 19 -34 34
-33 53 9 143 51 109 48 115 -35 58 -65 -44 -90 -42 -104 10 l-11 38 -60 -45
c-33 -25 -102 -89 -154 -141 -103 -105 -125 -114 -160 -70 -26 33 -26 49 -1
144 11 41 20 79 20 83 0 10 -39 -19 -171 -126 -136 -110 -211 -136 -293 -102
-36 15 -58 41 -71 83 -8 29 43 134 94 194 63 73 185 110 239 72z m10123 6 c12
-7 19 -21 19 -40 0 -36 -65 -96 -165 -151 -38 -21 -78 -44 -88 -51 -23 -17
-13 -46 20 -54 32 -8 154 51 251 123 92 68 102 72 102 42 0 -16 -20 -42 -59
-80 -105 -99 -215 -159 -294 -159 -74 0 -127 69 -112 146 11 63 109 180 180
217 34 18 117 22 146 7z m-6457 -31 c14 -11 24 -25 21 -30 -11 -16 4 -10 26
12 23 23 47 22 63 -3 8 -14 4 -32 -22 -83 -17 -36 -32 -79 -32 -95 l0 -31 31
17 c17 8 50 33 74 55 23 21 45 39 49 39 3 0 6 -14 6 -32 0 -25 -11 -42 -49
-79 -69 -67 -105 -84 -142 -69 -28 12 -35 25 -42 77 -2 12 -5 25 -8 27 -3 3
-30 -15 -59 -40 -30 -25 -81 -59 -112 -75 -87 -44 -136 -37 -157 22 -9 26 -7
39 8 75 36 80 153 187 239 219 52 19 75 18 106 -6z m754 -126 c2 -23 -2 -34
-15 -41 -10 -5 -90 -11 -178 -13 l-160 -4 -3 26 c-6 49 19 58 178 62 80 1 152
3 160 2 9 0 16 -12 18 -32z"/>
<path d="M7435 2270 c-3 -5 1 -10 9 -10 9 0 16 5 16 10 0 6 -4 10 -9 10 -6 0
-13 -4 -16 -10z"/>
<path d="M11126 2179 c-73 -17 -196 -125 -196 -172 0 -26 30 -20 98 20 89 53
167 125 159 146 -7 19 -6 19 -61 6z"/>
<path d="M8209 2201 c-48 -31 -96 -78 -87 -86 7 -7 158 93 158 105 0 17 -25
11 -71 -19z"/>
<path d="M4904 2214 c-34 -16 -101 -81 -93 -89 5 -4 129 74 154 96 15 15 -27
10 -61 -7z"/>
<path d="M9377 2168 c-52 -30 -149 -134 -145 -155 5 -29 30 -25 95 14 63 40
180 139 172 147 -3 3 -23 7 -44 10 -29 4 -50 -1 -78 -16z"/>
<path d="M2540 2210 c-36 -19 -107 -86 -99 -94 6 -6 159 96 159 106 0 13 -22
8 -60 -12z"/>
<path d="M12664 2211 c-37 -17 -99 -79 -88 -90 5 -6 106 64 129 89 22 25 12
25 -41 1z"/>
<path d="M6245 2176 c-68 -21 -101 -43 -149 -98 -80 -92 -53 -116 54 -47 73
47 172 138 164 150 -7 12 -20 11 -69 -5z"/>
</g>
</svg>
